<svg width="800" height="857" viewBox="0 0 800 857" fill="none" xmlns="http://www.w3.org/2000/svg">
<path d="M420.9 772.2V819C420.9 867.8 476.3 869.3 476.3 823.5V771.7L420.9 772.2Z" fill="#60504B"/>
<path d="M463.9 793.5H433.3V797.9H463.9V793.5Z" fill="white"/>
<path d="M463.9 801.9H433.3V806.3H463.9V801.9Z" fill="white"/>
<path d="M463.9 810.4H433.3V814.8H463.9V810.4Z" fill="white"/>
<path d="M317.6 772.2V819C317.6 867.8 373 869.3 373 823.5V771.7L317.6 772.2Z" fill="#60504B"/>
<path d="M291.9 398C291.9 464.4 291.9 546.9 291.9 626.2C291.9 682 291.9 736.2 291.9 782C348.5 782 343.7 782 384.6 782C384.6 735.2 384.6 680.6 384.6 627.5C384.6 551.6 384.6 478.7 384.6 435.9C390.5 435.9 405.1 435.9 410.5 435.9C410.5 477.2 410.5 551.7 410.5 627.5C410.5 682.4 410.5 737.9 410.5 782C455.5 782 446.1 782 503.2 782C503.2 739 503.2 684.5 503.2 627.5C503.2 548 503.2 463.5 503.2 398H291.9Z" fill="#B1C9C3"/>
<path d="M360.6 793.5H330V797.9H360.6V793.5Z" fill="white"/>
<path d="M360.6 801.9H330V806.3H360.6V801.9Z" fill="white"/>
<path d="M360.6 810.4H330V814.8H360.6V810.4Z" fill="white"/>
<path d="M448 168.9C420.2 155.4 379.7 153.1 346.7 168.8C341.6 158 332.7 123 333.6 88.4C334.7 47.9 349.1 7.9 398.9 8C446.7 8 460.7 47.1 461.4 87.7C461.4 120.8 448 168.9 448 168.9Z" fill="#60504B"/>
<path d="M459.2 94.9C465.883 94.9 471.3 89.4827 471.3 82.8C471.3 76.1174 465.883 70.7 459.2 70.7C452.517 70.7 447.1 76.1174 447.1 82.8C447.1 89.4827 452.517 94.9 459.2 94.9Z" fill="#DF7977"/>
<path d="M336.6 94.9C343.283 94.9 348.7 89.4827 348.7 82.8C348.7 76.1174 343.283 70.7 336.6 70.7C329.917 70.7 324.5 76.1174 324.5 82.8C324.5 89.4827 329.917 94.9 336.6 94.9Z" fill="#DF7977"/>
<path d="M398.5 133.9C398.942 133.9 399.3 133.542 399.3 133.1C399.3 132.658 398.942 132.3 398.5 132.3C398.058 132.3 397.7 132.658 397.7 133.1C397.7 133.542 398.058 133.9 398.5 133.9Z" fill="black"/>
<path d="M387.6 131.9C388.042 131.9 388.4 131.542 388.4 131.1C388.4 130.658 388.042 130.3 387.6 130.3C387.158 130.3 386.8 130.658 386.8 131.1C386.8 131.542 387.158 131.9 387.6 131.9Z" fill="black"/>
<path d="M409.4 131.9C409.842 131.9 410.2 131.542 410.2 131.1C410.2 130.658 409.842 130.3 409.4 130.3C408.958 130.3 408.6 130.658 408.6 131.1C408.6 131.542 408.958 131.9 409.4 131.9Z" fill="black"/>
<path d="M353.3 76.4C353.742 76.4 354.1 76.0418 354.1 75.6C354.1 75.1582 353.742 74.8 353.3 74.8C352.858 74.8 352.5 75.1582 352.5 75.6C352.5 76.0418 352.858 76.4 353.3 76.4Z" fill="black"/>
<path d="M353.3 66.9C353.742 66.9 354.1 66.5418 354.1 66.1C354.1 65.6582 353.742 65.3 353.3 65.3C352.858 65.3 352.5 65.6582 352.5 66.1C352.5 66.5418 352.858 66.9 353.3 66.9Z" fill="black"/>
<path d="M441.5 76.8C441.942 76.8 442.3 76.4418 442.3 76C442.3 75.5582 441.942 75.2 441.5 75.2C441.058 75.2 440.7 75.5582 440.7 76C440.7 76.4418 441.058 76.8 441.5 76.8Z" fill="black"/>
<path d="M441.5 67.2C441.942 67.2 442.3 66.8418 442.3 66.4C442.3 65.9582 441.942 65.6 441.5 65.6C441.058 65.6 440.7 65.9582 440.7 66.4C440.7 66.8418 441.058 67.2 441.5 67.2Z" fill="black"/>
<path d="M397.7 15.8C398.142 15.8 398.5 15.4418 398.5 15C398.5 14.5582 398.142 14.2 397.7 14.2C397.258 14.2 396.9 14.5582 396.9 15C396.9 15.4418 397.258 15.8 397.7 15.8Z" fill="black"/>
<path d="M415.4 18.3C415.842 18.3 416.2 17.9418 416.2 17.5C416.2 17.0582 415.842 16.7 415.4 16.7C414.958 16.7 414.6 17.0582 414.6 17.5C414.6 17.9418 414.958 18.3 415.4 18.3Z" fill="black"/>
<path d="M379.8 18.3C380.242 18.3 380.6 17.9418 380.6 17.5C380.6 17.0582 380.242 16.7 379.8 16.7C379.358 16.7 379 17.0582 379 17.5C379 17.9418 379.358 18.3 379.8 18.3Z" fill="black"/>
<path d="M424.6 11.2C425.9 7.6 426.7 3.8 427.1 0C429.7 3.1 430.9 7.39999 430.3 11.4C430.2 12.1 430 12.9 429.6 13.5C428.9 14.4 427.7 14.7 426.6 14.9C424.8 15.3 423 15.7 421.1 15.9C422.7 14.5 423.9 13.2 424.6 11.2Z" fill="#60504B"/>
<path d="M423.5 15.7C429.3 15.3 434.3 10 434.5 4.20001C436.8 5.20001 437.9 8.10002 437.2 10.5C436.5 12.9 434.3 14.7 431.9 15.4C429.5 16.1 426.9 15.8 424.5 15.1" fill="#60504B"/>
<path d="M274.5 413.2C273.2 340 286.2 284.3 306.8 245.8C319.4 222.2 334.8 205.1 351.6 194.2C366.3 184.7 382.1 180.1 397.8 180.3C413.4 180.5 429.1 185.5 443.7 195.1C460.2 206 475.5 222.9 488 245.8C509.3 284.6 522.7 340.6 521.1 413.2H274.5Z" fill="#BF4C68"/>
<path d="M398.4 216.6C410.55 216.6 420.4 209.302 420.4 200.3C420.4 191.298 410.55 184 398.4 184C386.25 184 376.4 191.298 376.4 200.3C376.4 209.302 386.25 216.6 398.4 216.6Z" fill="white"/>
<path d="M387.2 114.7H408.1C408.1 114.7 412.4 176.4 413.8 199.9C411.7 209.6 404.7 211.2 398.3 211C390.1 210.8 382.4 206.3 381.2 198.5L387.2 114.7Z" fill="#F3AF9D"/>
<path d="M387.2 114.7H408.1C410 133.7 386.4 198.5 381.2 198.5L387.2 114.7Z" fill="#DD9B8E"/>
<path d="M398.2 134.9C429.349 134.9 454.6 109.112 454.6 77.3C454.6 45.4884 429.349 19.7 398.2 19.7C367.051 19.7 341.8 45.4884 341.8 77.3C341.8 109.112 367.051 134.9 398.2 134.9Z" fill="#F3AF9D"/>
<path d="M398.5 133.9C398.942 133.9 399.3 133.542 399.3 133.1C399.3 132.658 398.942 132.3 398.5 132.3C398.058 132.3 397.7 132.658 397.7 133.1C397.7 133.542 398.058 133.9 398.5 133.9Z" fill="black"/>
<path d="M387.6 131.9C388.042 131.9 388.4 131.542 388.4 131.1C388.4 130.658 388.042 130.3 387.6 130.3C387.158 130.3 386.8 130.658 386.8 131.1C386.8 131.542 387.158 131.9 387.6 131.9Z" fill="black"/>
<path d="M409.4 131.9C409.842 131.9 410.2 131.542 410.2 131.1C410.2 130.658 409.842 130.3 409.4 130.3C408.958 130.3 408.6 130.658 408.6 131.1C408.6 131.542 408.958 131.9 409.4 131.9Z" fill="black"/>
<path d="M353.3 76.4C353.742 76.4 354.1 76.0418 354.1 75.6C354.1 75.1582 353.742 74.8 353.3 74.8C352.858 74.8 352.5 75.1582 352.5 75.6C352.5 76.0418 352.858 76.4 353.3 76.4Z" fill="black"/>
<path d="M353.3 66.9C353.742 66.9 354.1 66.5418 354.1 66.1C354.1 65.6582 353.742 65.3 353.3 65.3C352.858 65.3 352.5 65.6582 352.5 66.1C352.5 66.5418 352.858 66.9 353.3 66.9Z" fill="black"/>
<path d="M441.5 76.8C441.942 76.8 442.3 76.4418 442.3 76C442.3 75.5582 441.942 75.2 441.5 75.2C441.058 75.2 440.7 75.5582 440.7 76C440.7 76.4418 441.058 76.8 441.5 76.8Z" fill="black"/>
<path d="M441.5 67.2C441.942 67.2 442.3 66.8419 442.3 66.4C442.3 65.9582 441.942 65.6 441.5 65.6C441.058 65.6 440.7 65.9582 440.7 66.4C440.7 66.8419 441.058 67.2 441.5 67.2Z" fill="black"/>
<path d="M397.7 15.8C398.142 15.8 398.5 15.4418 398.5 15C398.5 14.5582 398.142 14.2 397.7 14.2C397.258 14.2 396.9 14.5582 396.9 15C396.9 15.4418 397.258 15.8 397.7 15.8Z" fill="black"/>
<path d="M415.4 18.3C415.842 18.3 416.2 17.9418 416.2 17.5C416.2 17.0582 415.842 16.7 415.4 16.7C414.958 16.7 414.6 17.0582 414.6 17.5C414.6 17.9418 414.958 18.3 415.4 18.3Z" fill="black"/>
<path d="M379.8 18.3C380.242 18.3 380.6 17.9418 380.6 17.5C380.6 17.0582 380.242 16.7 379.8 16.7C379.358 16.7 379 17.0582 379 17.5C379 17.9418 379.358 18.3 379.8 18.3Z" fill="black"/>
<path d="M351.7 70.9C354.8 64.8 364.8 64.2 372.8 64.8C373.5 67.1 373.5 68.6 372.7 68.5C369.6 68.4 362.5 64.6 351.7 70.9Z" fill="#2C323A"/>
<path d="M365.5 53C365.942 53 366.3 52.6418 366.3 52.2C366.3 51.7582 365.942 51.4 365.5 51.4C365.058 51.4 364.7 51.7582 364.7 52.2C364.7 52.6418 365.058 53 365.5 53Z" fill="black"/>
<path d="M388.8 56C389.242 56 389.6 55.6418 389.6 55.2C389.6 54.7582 389.242 54.4 388.8 54.4C388.358 54.4 388 54.7582 388 55.2C388 55.6418 388.358 56 388.8 56Z" fill="black"/>
<path d="M379 52C379.442 52 379.8 51.6418 379.8 51.2C379.8 50.7582 379.442 50.4 379 50.4C378.558 50.4 378.2 50.7582 378.2 51.2C378.2 51.6418 378.558 52 379 52Z" fill="black"/>
<path d="M361.5 56.7C361.942 56.7 362.3 56.3418 362.3 55.9C362.3 55.4582 361.942 55.1 361.5 55.1C361.058 55.1 360.7 55.4582 360.7 55.9C360.7 56.3418 361.058 56.7 361.5 56.7Z" fill="black"/>
<path d="M371.7 52C372.142 52 372.5 51.6418 372.5 51.2C372.5 50.7582 372.142 50.4 371.7 50.4C371.258 50.4 370.9 50.7582 370.9 51.2C370.9 51.6418 371.258 52 371.7 52Z" fill="black"/>
<path d="M439.7 69.8C432.2 66.4 430.9 67.6 420.7 68.8C420.4 68 420.2 67.1 420.6 64.8C426.6 65.3 436.6 62.5 441.7 70.9C441 70.5 440.4 70.1 439.7 69.8Z" fill="#2C323A"/>
<path d="M429.2 53.4C429.642 53.4 430 53.0418 430 52.6C430 52.1582 429.642 51.8 429.2 51.8C428.758 51.8 428.4 52.1582 428.4 52.6C428.4 53.0418 428.758 53.4 429.2 53.4Z" fill="black"/>
<path d="M405.6 55.5C406.042 55.5 406.4 55.1418 406.4 54.7C406.4 54.2581 406.042 53.9 405.6 53.9C405.158 53.9 404.8 54.2581 404.8 54.7C404.8 55.1418 405.158 55.5 405.6 55.5Z" fill="black"/>
<path d="M415.6 52.3C416.042 52.3 416.4 51.9418 416.4 51.5C416.4 51.0582 416.042 50.7 415.6 50.7C415.158 50.7 414.8 51.0582 414.8 51.5C414.8 51.9418 415.158 52.3 415.6 52.3Z" fill="black"/>
<path d="M433.2 56.3C433.642 56.3 434 55.9418 434 55.5C434 55.0582 433.642 54.7 433.2 54.7C432.758 54.7 432.4 55.0582 432.4 55.5C432.4 55.9418 432.758 56.3 433.2 56.3Z" fill="black"/>
<path d="M422.9 51.9C423.342 51.9 423.7 51.5418 423.7 51.1C423.7 50.6582 423.342 50.3 422.9 50.3C422.458 50.3 422.1 50.6582 422.1 51.1C422.1 51.5418 422.458 51.9 422.9 51.9Z" fill="black"/>
<path d="M363.1 102.7C367.408 102.7 370.9 99.9242 370.9 96.5C370.9 93.0758 367.408 90.3 363.1 90.3C358.792 90.3 355.3 93.0758 355.3 96.5C355.3 99.9242 358.792 102.7 363.1 102.7Z" fill="#DF7977"/>
<path d="M366 86.4C367.988 86.4 369.6 83.8032 369.6 80.6C369.6 77.3967 367.988 74.8 366 74.8C364.012 74.8 362.4 77.3967 362.4 80.6C362.4 83.8032 364.012 86.4 366 86.4Z" fill="#2C323A"/>
<path d="M367.7 64.9C368.142 64.9 368.5 64.5418 368.5 64.1C368.5 63.6582 368.142 63.3 367.7 63.3C367.258 63.3 366.9 63.6582 366.9 64.1C366.9 64.5418 367.258 64.9 367.7 64.9Z" fill="black"/>
<path d="M372.9 61.2C373.342 61.2 373.7 60.8418 373.7 60.4C373.7 59.9582 373.342 59.6 372.9 59.6C372.458 59.6 372.1 59.9582 372.1 60.4C372.1 60.8418 372.458 61.2 372.9 61.2Z" fill="black"/>
<path d="M372.9 67.2C373.342 67.2 373.7 66.8418 373.7 66.4C373.7 65.9582 373.342 65.6 372.9 65.6C372.458 65.6 372.1 65.9582 372.1 66.4C372.1 66.8418 372.458 67.2 372.9 67.2Z" fill="black"/>
<path d="M379.2 61.2C379.642 61.2 380 60.8418 380 60.4C380 59.9582 379.642 59.6 379.2 59.6C378.758 59.6 378.4 59.9582 378.4 60.4C378.4 60.8418 378.758 61.2 379.2 61.2Z" fill="black"/>
<path d="M384.4 65.4C384.842 65.4 385.2 65.0418 385.2 64.6C385.2 64.1582 384.842 63.8 384.4 63.8C383.958 63.8 383.6 64.1582 383.6 64.6C383.6 65.0418 383.958 65.4 384.4 65.4Z" fill="black"/>
<path d="M379.2 66.4C379.642 66.4 380 66.0418 380 65.6C380 65.1582 379.642 64.8 379.2 64.8C378.758 64.8 378.4 65.1582 378.4 65.6C378.4 66.0418 378.758 66.4 379.2 66.4Z" fill="black"/>
<path d="M427.8 86.4C429.788 86.4 431.4 83.8032 431.4 80.6C431.4 77.3967 429.788 74.8 427.8 74.8C425.811 74.8 424.2 77.3967 424.2 80.6C424.2 83.8032 425.811 86.4 427.8 86.4Z" fill="#2C323A"/>
<path d="M432.2 102.7C436.508 102.7 440 99.9242 440 96.5C440 93.0758 436.508 90.3 432.2 90.3C427.892 90.3 424.4 93.0758 424.4 96.5C424.4 99.9242 427.892 102.7 432.2 102.7Z" fill="#DF7977"/>
<path d="M427.3 64.9C427.742 64.9 428.1 64.5418 428.1 64.1C428.1 63.6582 427.742 63.3 427.3 63.3C426.858 63.3 426.5 63.6582 426.5 64.1C426.5 64.5418 426.858 64.9 427.3 64.9Z" fill="black"/>
<path d="M422.1 61.2C422.542 61.2 422.9 60.8418 422.9 60.4C422.9 59.9582 422.542 59.6 422.1 59.6C421.658 59.6 421.3 59.9582 421.3 60.4C421.3 60.8418 421.658 61.2 422.1 61.2Z" fill="black"/>
<path d="M422.1 67.2C422.542 67.2 422.9 66.8418 422.9 66.4C422.9 65.9582 422.542 65.6 422.1 65.6C421.658 65.6 421.3 65.9582 421.3 66.4C421.3 66.8418 421.658 67.2 422.1 67.2Z" fill="black"/>
<path d="M415.8 61.2C416.242 61.2 416.6 60.8418 416.6 60.4C416.6 59.9582 416.242 59.6 415.8 59.6C415.358 59.6 415 59.9582 415 60.4C415 60.8418 415.358 61.2 415.8 61.2Z" fill="black"/>
<path d="M410.6 65.4C411.042 65.4 411.4 65.0418 411.4 64.6C411.4 64.1582 411.042 63.8 410.6 63.8C410.158 63.8 409.8 64.1582 409.8 64.6C409.8 65.0418 410.158 65.4 410.6 65.4Z" fill="black"/>
<path d="M415.8 66.4C416.242 66.4 416.6 66.0418 416.6 65.6C416.6 65.1582 416.242 64.8 415.8 64.8C415.358 64.8 415 65.1582 415 65.6C415 66.0418 415.358 66.4 415.8 66.4Z" fill="black"/>
<path d="M383.8 103.6C384.2 103.6 384.6 104 384.6 104.4C384.6 104.8 384.2 105.2 383.8 105.2C383.4 105.2 383 104.8 383 104.4C383 104 383.4 103.6 383.8 103.6Z" fill="black"/>
<path d="M397.5 104.9C397.942 104.9 398.3 104.542 398.3 104.1C398.3 103.658 397.942 103.3 397.5 103.3C397.058 103.3 396.7 103.658 396.7 104.1C396.7 104.542 397.058 104.9 397.5 104.9Z" fill="black"/>
<path d="M393.6 104.4C394.042 104.4 394.4 104.042 394.4 103.6C394.4 103.158 394.042 102.8 393.6 102.8C393.158 102.8 392.8 103.158 392.8 103.6C392.8 104.042 393.158 104.4 393.6 104.4Z" fill="black"/>
<path d="M411.2 103.6C411.6 103.6 412 104 412 104.4C412 104.8 411.6 105.2 411.2 105.2C410.8 105.2 410.4 104.8 410.4 104.4C410.4 104 410.8 103.6 411.2 103.6Z" fill="black"/>
<path d="M401.4 104.4C401.842 104.4 402.2 104.042 402.2 103.6C402.2 103.158 401.842 102.8 401.4 102.8C400.958 102.8 400.6 103.158 400.6 103.6C400.6 104.042 400.958 104.4 401.4 104.4Z" fill="black"/>
<path d="M384.6 104.4C384.6 104.4 392 104.2 397.5 104.2C403 104.2 411.4 104.1 411.4 104.1C411.4 104.1 405.3 108.1 397.5 108.1C389.6 108.1 384.6 104.4 384.6 104.4Z" fill="#2C323A" stroke="#2C323A" stroke-width="2" stroke-miterlimit="10"/>
<path d="M397.5 107.9C397.942 107.9 398.3 107.542 398.3 107.1C398.3 106.658 397.942 106.3 397.5 106.3C397.058 106.3 396.7 106.658 396.7 107.1C396.7 107.542 397.058 107.9 397.5 107.9Z" fill="black"/>
<path d="M393.6 107.2C394.042 107.2 394.4 106.842 394.4 106.4C394.4 105.958 394.042 105.6 393.6 105.6C393.158 105.6 392.8 105.958 392.8 106.4C392.8 106.842 393.158 107.2 393.6 107.2Z" fill="black"/>
<path d="M401.4 107.2C401.842 107.2 402.2 106.842 402.2 106.4C402.2 105.958 401.842 105.6 401.4 105.6C400.958 105.6 400.6 105.958 400.6 106.4C400.6 106.842 400.958 107.2 401.4 107.2Z" fill="black"/>
<path d="M409.7 31.2C409.5 39.7 401.3 50 383.8 54.5C381.7 55 392.8 46.3 397.5 36C377.8 59.6 367.7 63.3 333.7 61.6C338.8 38.9 360 8.29999 397 7.89999C434 7.49999 454.1 29.5 462.1 64.2C440.2 59.1 422.5 61.2 409.7 31.2Z" fill="#60504B"/>
<path d="M398.5 133.9C398.942 133.9 399.3 133.542 399.3 133.1C399.3 132.658 398.942 132.3 398.5 132.3C398.058 132.3 397.7 132.658 397.7 133.1C397.7 133.542 398.058 133.9 398.5 133.9Z" fill="black"/>
<path d="M387.6 131.9C388.042 131.9 388.4 131.542 388.4 131.1C388.4 130.658 388.042 130.3 387.6 130.3C387.158 130.3 386.8 130.658 386.8 131.1C386.8 131.542 387.158 131.9 387.6 131.9Z" fill="black"/>
<path d="M409.4 131.9C409.842 131.9 410.2 131.542 410.2 131.1C410.2 130.658 409.842 130.3 409.4 130.3C408.958 130.3 408.6 130.658 408.6 131.1C408.6 131.542 408.958 131.9 409.4 131.9Z" fill="black"/>
<path d="M353.3 76.4C353.742 76.4 354.1 76.0418 354.1 75.6C354.1 75.1582 353.742 74.8 353.3 74.8C352.858 74.8 352.5 75.1582 352.5 75.6C352.5 76.0418 352.858 76.4 353.3 76.4Z" fill="black"/>
<path d="M353.3 66.9C353.742 66.9 354.1 66.5418 354.1 66.1C354.1 65.6582 353.742 65.3 353.3 65.3C352.858 65.3 352.5 65.6582 352.5 66.1C352.5 66.5418 352.858 66.9 353.3 66.9Z" fill="black"/>
<path d="M441.5 76.8C441.942 76.8 442.3 76.4418 442.3 76C442.3 75.5582 441.942 75.2 441.5 75.2C441.058 75.2 440.7 75.5582 440.7 76C440.7 76.4418 441.058 76.8 441.5 76.8Z" fill="black"/>
<path d="M441.5 67.2C441.942 67.2 442.3 66.8418 442.3 66.4C442.3 65.9582 441.942 65.6 441.5 65.6C441.058 65.6 440.7 65.9582 440.7 66.4C440.7 66.8418 441.058 67.2 441.5 67.2Z" fill="black"/>
<path d="M397.7 15.8C398.142 15.8 398.5 15.4418 398.5 15C398.5 14.5582 398.142 14.2 397.7 14.2C397.258 14.2 396.9 14.5582 396.9 15C396.9 15.4418 397.258 15.8 397.7 15.8Z" fill="black"/>
<path d="M415.4 18.3C415.842 18.3 416.2 17.9418 416.2 17.5C416.2 17.0582 415.842 16.7 415.4 16.7C414.958 16.7 414.6 17.0582 414.6 17.5C414.6 17.9418 414.958 18.3 415.4 18.3Z" fill="black"/>
<path d="M379.8 18.3C380.242 18.3 380.6 17.9418 380.6 17.5C380.6 17.0582 380.242 16.7 379.8 16.7C379.358 16.7 379 17.0582 379 17.5C379 17.9418 379.358 18.3 379.8 18.3Z" fill="black"/>
<path d="M741.4 230.4L758.4 223.6C758.4 223.6 764.5 229.1 771.4 234.8C778.3 240.5 766.7 253.2 756.1 245.4C745.4 237.6 741.4 230.4 741.4 230.4Z" fill="#F3AF9D"/>
<path d="M183.4 171.3L186.4 228.1C245.3 228.4 279.9 225.8 305.7 245.8L354.4 195.6C300.1 168.9 239.4 167.9 183.4 171.3Z" fill="#E094A3"/>
<path d="M443.3 194.6L486.6 247.8C513.6 231.6 554.3 231.5 613.2 231.1V174.3C557.2 170.9 514 163.9 443.3 194.6Z" fill="#E094A3"/>
<path d="M188.6 177.9C140.9 180.6 65.5 186.8 28.4 192.1C-8.70005 197.4 -11.7 232.2 33.7 231.6C79.1 231 128.9 228.1 193.4 219.5L188.6 177.9Z" fill="#F3AF9D"/>
<path d="M53.1999 230.4L36.1999 223.6C36.1999 223.6 30.0999 229.1 23.1999 234.8C16.2999 240.5 27.8999 253.2 38.4999 245.4C49.1999 237.6 53.1999 230.4 53.1999 230.4Z" fill="#F3AF9D"/>
<path d="M607.3 222.5C671.8 231.1 720.6 234 766 234.6C811.4 235.2 808.4 200.4 771.3 195.1C734.2 189.8 656.8 183.6 609.1 180.9L607.3 222.5Z" fill="#F3AF9D"/>
<path d="M396.7 65.9C397.142 65.9 397.5 65.5418 397.5 65.1C397.5 64.6582 397.142 64.3 396.7 64.3C396.258 64.3 395.9 64.6582 395.9 65.1C395.9 65.5418 396.258 65.9 396.7 65.9Z" fill="black"/>
<path d="M396.7 60.1C397.142 60.1 397.5 59.7418 397.5 59.3C397.5 58.8582 397.142 58.5 396.7 58.5C396.258 58.5 395.9 58.8582 395.9 59.3C395.9 59.7418 396.258 60.1 396.7 60.1Z" fill="black"/>
<path d="M396.7 78.5C397.142 78.5 397.5 78.1418 397.5 77.7C397.5 77.2582 397.142 76.9 396.7 76.9C396.258 76.9 395.9 77.2582 395.9 77.7C395.9 78.1418 396.258 78.5 396.7 78.5Z" fill="black"/>
<path d="M386 83C386.442 83 386.8 82.6418 386.8 82.2C386.8 81.7582 386.442 81.4 386 81.4C385.558 81.4 385.2 81.7582 385.2 82.2C385.2 82.6418 385.558 83 386 83Z" fill="black"/>
<path d="M391.2 83C391.642 83 392 82.6418 392 82.2C392 81.7582 391.642 81.4 391.2 81.4C390.758 81.4 390.4 81.7582 390.4 82.2C390.4 82.6418 390.758 83 391.2 83Z" fill="black"/>
<path d="M396.7 71.4C397.142 71.4 397.5 71.0418 397.5 70.6C397.5 70.1582 397.142 69.8 396.7 69.8C396.258 69.8 395.9 70.1582 395.9 70.6C395.9 71.0418 396.258 71.4 396.7 71.4Z" fill="black"/>
<path d="M396.7 83.8C397.142 83.8 397.5 83.4418 397.5 83C397.5 82.5582 397.142 82.2 396.7 82.2C396.258 82.2 395.9 82.5582 395.9 83C395.9 83.4418 396.258 83.8 396.7 83.8Z" fill="black"/>
<path d="M407.1 83C407.542 83 407.9 82.6418 407.9 82.2C407.9 81.7582 407.542 81.4 407.1 81.4C406.658 81.4 406.3 81.7582 406.3 82.2C406.3 82.6418 406.658 83 407.1 83Z" fill="black"/>
<path d="M402.3 83C402.742 83 403.1 82.6418 403.1 82.2C403.1 81.7582 402.742 81.4 402.3 81.4C401.858 81.4 401.5 81.7582 401.5 82.2C401.5 82.6418 401.858 83 402.3 83Z" fill="black"/>
<path d="M395.4 81.8C394.2 81.8 390.8 83.4 389.6 87C389.4 88.2 390.2 92.8 395.6 91.1C395.5 90.1 390.9 90 391.1 87.4C391.4 85.6 393.1 85.6 395.4 81.8Z" fill="#2C323A" stroke="#2C323A" stroke-width="2" stroke-miterlimit="10"/>
<path d="M291.8 198.5L342.1 414.3L458.5 413.5L504.7 198.5H291.8Z" stroke="black" stroke-miterlimit="10"/>
<path d="M290.8 198.5H188.1L24.8 204.8" stroke="black" stroke-miterlimit="10"/>
<path d="M506.2 198.1H609.4L772.7 204.5" stroke="black" stroke-miterlimit="10"/>
<path d="M342.1 414.3L348.5 574.5V782.5" stroke="black" stroke-miterlimit="10"/>
<path d="M458.5 413.5V574.5V782.5" stroke="black" stroke-miterlimit="10"/>
<path d="M397.5 19L377.7 21.5L365.2 31L356.6 45.1L354.1 54.4L353.3 66.1V75.6L354.1 97.3L360.9 117.3L372.5 129.8L382.5 136.5L397.5 139.7L412.3 136.9L422.3 130.2L433.9 117.6L440.7 97.6L441.5 76V66.4L440.7 54.7L438.2 45.5L430 31L417.4 21.5L397.5 19Z" stroke="black" stroke-miterlimit="10"/>
<path d="M361.5 55.9L365.5 52.2L371.7 51.2H379L388.8 55.2" stroke="black" stroke-miterlimit="10"/>
<path d="M367.7 64.1L372.9 60.4H379.2L384.4 64.6L379.2 65.6L372.9 66.4L367.7 64.1Z" stroke="black" stroke-miterlimit="10"/>
<path d="M386 82.2H391.2L396.7 83V77.7V70.6V65.1V59.3" stroke="black" stroke-miterlimit="10"/>
<path d="M433 55.5L429 52.6L422.7 51.1L415.4 51.5L405.4 54.7" stroke="black" stroke-miterlimit="10"/>
<path d="M427.1 64.1L421.8 60.4H415.5L410.4 64.6L415.5 65.6L421.8 66.4L427.1 64.1Z" stroke="black" stroke-miterlimit="10"/>
<path d="M407.1 82.2H402.1L396.7 83" stroke="black" stroke-miterlimit="10"/>
<path d="M380 104.3L386.9 100.9L393.4 99.8L397.5 100.7L401.7 99.8L408.1 100.9L415 104.3L408.6 110.6L401.5 113.4L397.5 113.9L393.4 113.4L386.4 110.6L380 104.3Z" stroke="black" stroke-miterlimit="10"/>
<path d="M380 104.3L383.6 104.6L393.6 103.8L397.5 104.3L401.5 103.8L411.4 104.6L415 104.3" stroke="black" stroke-miterlimit="10"/>
<path d="M380 104.3L383.6 104.6L393.6 106.7L397.5 107.5L401.5 106.7L411.4 104.6L415 104.3" stroke="black" stroke-miterlimit="10"/>
<path d="M291.9 206.4C296.429 206.4 300.1 202.729 300.1 198.2C300.1 193.671 296.429 190 291.9 190C287.371 190 283.7 193.671 283.7 198.2C283.7 202.729 287.371 206.4 291.9 206.4Z" fill="black"/>
<path d="M188.4 206.5C192.929 206.5 196.6 202.829 196.6 198.3C196.6 193.771 192.929 190.1 188.4 190.1C183.871 190.1 180.2 193.771 180.2 198.3C180.2 202.829 183.871 206.5 188.4 206.5Z" fill="black"/>
<path d="M25 212.9C29.5288 212.9 33.2001 209.229 33.2001 204.7C33.2001 200.171 29.5288 196.5 25 196.5C20.4713 196.5 16.8 200.171 16.8 204.7C16.8 209.229 20.4713 212.9 25 212.9Z" fill="black"/>
<path d="M342.2 422.2C346.729 422.2 350.4 418.529 350.4 414C350.4 409.471 346.729 405.8 342.2 405.8C337.671 405.8 334 409.471 334 414C334 418.529 337.671 422.2 342.2 422.2Z" fill="black"/>
<path d="M348.6 582.4C353.129 582.4 356.8 578.729 356.8 574.2C356.8 569.671 353.129 566 348.6 566C344.071 566 340.4 569.671 340.4 574.2C340.4 578.729 344.071 582.4 348.6 582.4Z" fill="black"/>
<path d="M348.6 790.4C353.129 790.4 356.8 786.729 356.8 782.2C356.8 777.671 353.129 774 348.6 774C344.071 774 340.4 777.671 340.4 782.2C340.4 786.729 344.071 790.4 348.6 790.4Z" fill="black"/>
<path d="M609.2 206.1C613.729 206.1 617.4 202.429 617.4 197.9C617.4 193.371 613.729 189.7 609.2 189.7C604.671 189.7 601 193.371 601 197.9C601 202.429 604.671 206.1 609.2 206.1Z" fill="black"/>
<path d="M772.6 212.4C777.129 212.4 780.8 208.729 780.8 204.2C780.8 199.671 777.129 196 772.6 196C768.071 196 764.4 199.671 764.4 204.2C764.4 208.729 768.071 212.4 772.6 212.4Z" fill="black"/>
<path d="M458.6 421.4C463.129 421.4 466.8 417.729 466.8 413.2C466.8 408.671 463.129 405 458.6 405C454.071 405 450.4 408.671 450.4 413.2C450.4 417.729 454.071 421.4 458.6 421.4Z" fill="black"/>
<path d="M458.6 582.4C463.129 582.4 466.8 578.729 466.8 574.2C466.8 569.671 463.129 566 458.6 566C454.071 566 450.4 569.671 450.4 574.2C450.4 578.729 454.071 582.4 458.6 582.4Z" fill="black"/>
<path d="M458.6 790.4C463.129 790.4 466.8 786.729 466.8 782.2C466.8 777.671 463.129 774 458.6 774C454.071 774 450.4 777.671 450.4 782.2C450.4 786.729 454.071 790.4 458.6 790.4Z" fill="black"/>
<path d="M367.7 64.9C368.142 64.9 368.5 64.5418 368.5 64.1C368.5 63.6582 368.142 63.3 367.7 63.3C367.258 63.3 366.9 63.6582 366.9 64.1C366.9 64.5418 367.258 64.9 367.7 64.9Z" fill="black"/>
<path d="M365.5 53C365.942 53 366.3 52.6419 366.3 52.2C366.3 51.7582 365.942 51.4 365.5 51.4C365.058 51.4 364.7 51.7582 364.7 52.2C364.7 52.6419 365.058 53 365.5 53Z" fill="black"/>
<path d="M388.8 56C389.242 56 389.6 55.6419 389.6 55.2C389.6 54.7582 389.242 54.4 388.8 54.4C388.358 54.4 388 54.7582 388 55.2C388 55.6419 388.358 56 388.8 56Z" fill="black"/>
<path d="M396.7 65.9C397.142 65.9 397.5 65.5418 397.5 65.1C397.5 64.6582 397.142 64.3 396.7 64.3C396.258 64.3 395.9 64.6582 395.9 65.1C395.9 65.5418 396.258 65.9 396.7 65.9Z" fill="black"/>
<path d="M379 52C379.442 52 379.8 51.6419 379.8 51.2C379.8 50.7582 379.442 50.4 379 50.4C378.558 50.4 378.2 50.7582 378.2 51.2C378.2 51.6419 378.558 52 379 52Z" fill="black"/>
<path d="M372.9 61.2C373.342 61.2 373.7 60.8419 373.7 60.4C373.7 59.9582 373.342 59.6 372.9 59.6C372.458 59.6 372.1 59.9582 372.1 60.4C372.1 60.8419 372.458 61.2 372.9 61.2Z" fill="black"/>
<path d="M361.5 56.7C361.942 56.7 362.3 56.3419 362.3 55.9C362.3 55.4582 361.942 55.1 361.5 55.1C361.058 55.1 360.7 55.4582 360.7 55.9C360.7 56.3419 361.058 56.7 361.5 56.7Z" fill="black"/>
<path d="M371.7 52C372.142 52 372.5 51.6419 372.5 51.2C372.5 50.7582 372.142 50.4 371.7 50.4C371.258 50.4 370.9 50.7582 370.9 51.2C370.9 51.6419 371.258 52 371.7 52Z" fill="black"/>
<path d="M372.9 67.2C373.342 67.2 373.7 66.8419 373.7 66.4C373.7 65.9582 373.342 65.6 372.9 65.6C372.458 65.6 372.1 65.9582 372.1 66.4C372.1 66.8419 372.458 67.2 372.9 67.2Z" fill="black"/>
<path d="M379.2 61.2C379.642 61.2 380 60.8419 380 60.4C380 59.9582 379.642 59.6 379.2 59.6C378.758 59.6 378.4 59.9582 378.4 60.4C378.4 60.8419 378.758 61.2 379.2 61.2Z" fill="black"/>
<path d="M384.4 65.4C384.842 65.4 385.2 65.0418 385.2 64.6C385.2 64.1582 384.842 63.8 384.4 63.8C383.958 63.8 383.6 64.1582 383.6 64.6C383.6 65.0418 383.958 65.4 384.4 65.4Z" fill="black"/>
<path d="M396.7 60.1C397.142 60.1 397.5 59.7418 397.5 59.3C397.5 58.8582 397.142 58.5 396.7 58.5C396.258 58.5 395.9 58.8582 395.9 59.3C395.9 59.7418 396.258 60.1 396.7 60.1Z" fill="black"/>
<path d="M396.7 78.5C397.142 78.5 397.5 78.1419 397.5 77.7C397.5 77.2582 397.142 76.9 396.7 76.9C396.258 76.9 395.9 77.2582 395.9 77.7C395.9 78.1419 396.258 78.5 396.7 78.5Z" fill="black"/>
<path d="M386 83C386.442 83 386.8 82.6419 386.8 82.2C386.8 81.7582 386.442 81.4 386 81.4C385.558 81.4 385.2 81.7582 385.2 82.2C385.2 82.6419 385.558 83 386 83Z" fill="black"/>
<path d="M380 105.1C380.442 105.1 380.8 104.742 380.8 104.3C380.8 103.858 380.442 103.5 380 103.5C379.558 103.5 379.2 103.858 379.2 104.3C379.2 104.742 379.558 105.1 380 105.1Z" fill="black"/>
<path d="M391.2 83C391.642 83 392 82.6419 392 82.2C392 81.7582 391.642 81.4 391.2 81.4C390.758 81.4 390.4 81.7582 390.4 82.2C390.4 82.6419 390.758 83 391.2 83Z" fill="black"/>
<path d="M386.9 101.7C387.342 101.7 387.7 101.342 387.7 100.9C387.7 100.458 387.342 100.1 386.9 100.1C386.458 100.1 386.1 100.458 386.1 100.9C386.1 101.342 386.458 101.7 386.9 101.7Z" fill="black"/>
<path d="M396.7 71.4C397.142 71.4 397.5 71.0418 397.5 70.6C397.5 70.1582 397.142 69.8 396.7 69.8C396.258 69.8 395.9 70.1582 395.9 70.6C395.9 71.0418 396.258 71.4 396.7 71.4Z" fill="black"/>
<path d="M396.7 83.8C397.142 83.8 397.5 83.4418 397.5 83C397.5 82.5582 397.142 82.2 396.7 82.2C396.258 82.2 395.9 82.5582 395.9 83C395.9 83.4418 396.258 83.8 396.7 83.8Z" fill="black"/>
<path d="M397.5 101.5C397.942 101.5 398.3 101.142 398.3 100.7C398.3 100.258 397.942 99.9 397.5 99.9C397.058 99.9 396.7 100.258 396.7 100.7C396.7 101.142 397.058 101.5 397.5 101.5Z" fill="black"/>
<path d="M393.4 100.6C393.842 100.6 394.2 100.242 394.2 99.8C394.2 99.3582 393.842 99 393.4 99C392.958 99 392.6 99.3582 392.6 99.8C392.6 100.242 392.958 100.6 393.4 100.6Z" fill="black"/>
<path d="M383.6 103.8C384 103.8 384.4 104.2 384.4 104.6C384.4 105 384 105.4 383.6 105.4C383.2 105.4 382.8 105 382.8 104.6C382.8 104.2 383.2 103.8 383.6 103.8Z" fill="black"/>
<path d="M397.5 114.7C397.942 114.7 398.3 114.342 398.3 113.9C398.3 113.458 397.942 113.1 397.5 113.1C397.058 113.1 396.7 113.458 396.7 113.9C396.7 114.342 397.058 114.7 397.5 114.7Z" fill="black"/>
<path d="M397.5 105.1C397.942 105.1 398.3 104.742 398.3 104.3C398.3 103.858 397.942 103.5 397.5 103.5C397.058 103.5 396.7 103.858 396.7 104.3C396.7 104.742 397.058 105.1 397.5 105.1Z" fill="black"/>
<path d="M397.5 108.2C397.942 108.2 398.3 107.842 398.3 107.4C398.3 106.958 397.942 106.6 397.5 106.6C397.058 106.6 396.7 106.958 396.7 107.4C396.7 107.842 397.058 108.2 397.5 108.2Z" fill="black"/>
<path d="M393.6 104.6C394.042 104.6 394.4 104.242 394.4 103.8C394.4 103.358 394.042 103 393.6 103C393.158 103 392.8 103.358 392.8 103.8C392.8 104.242 393.158 104.6 393.6 104.6Z" fill="black"/>
<path d="M393.6 107.5C394.042 107.5 394.4 107.142 394.4 106.7C394.4 106.258 394.042 105.9 393.6 105.9C393.158 105.9 392.8 106.258 392.8 106.7C392.8 107.142 393.158 107.5 393.6 107.5Z" fill="black"/>
<path d="M393.4 114.2C393.842 114.2 394.2 113.842 394.2 113.4C394.2 112.958 393.842 112.6 393.4 112.6C392.958 112.6 392.6 112.958 392.6 113.4C392.6 113.842 392.958 114.2 393.4 114.2Z" fill="black"/>
<path d="M386.4 111.4C386.842 111.4 387.2 111.042 387.2 110.6C387.2 110.158 386.842 109.8 386.4 109.8C385.958 109.8 385.6 110.158 385.6 110.6C385.6 111.042 385.958 111.4 386.4 111.4Z" fill="black"/>
<path d="M379.2 66.4C379.642 66.4 380 66.0418 380 65.6C380 65.1582 379.642 64.8 379.2 64.8C378.758 64.8 378.4 65.1582 378.4 65.6C378.4 66.0418 378.758 66.4 379.2 66.4Z" fill="black"/>
<path d="M397.5 140.5C397.942 140.5 398.3 140.142 398.3 139.7C398.3 139.258 397.942 138.9 397.5 138.9C397.058 138.9 396.7 139.258 396.7 139.7C396.7 140.142 397.058 140.5 397.5 140.5Z" fill="black"/>
<path d="M382.5 137.3C382.942 137.3 383.3 136.942 383.3 136.5C383.3 136.058 382.942 135.7 382.5 135.7C382.058 135.7 381.7 136.058 381.7 136.5C381.7 136.942 382.058 137.3 382.5 137.3Z" fill="black"/>
<path d="M372.5 130.6C372.942 130.6 373.3 130.242 373.3 129.8C373.3 129.358 372.942 129 372.5 129C372.058 129 371.7 129.358 371.7 129.8C371.7 130.242 372.058 130.6 372.5 130.6Z" fill="black"/>
<path d="M360.9 118.1C361.342 118.1 361.7 117.742 361.7 117.3C361.7 116.858 361.342 116.5 360.9 116.5C360.458 116.5 360.1 116.858 360.1 117.3C360.1 117.742 360.458 118.1 360.9 118.1Z" fill="black"/>
<path d="M354.1 98.1C354.542 98.1 354.9 97.7418 354.9 97.3C354.9 96.8582 354.542 96.5 354.1 96.5C353.658 96.5 353.3 96.8582 353.3 97.3C353.3 97.7418 353.658 98.1 354.1 98.1Z" fill="black"/>
<path d="M353.3 76.4C353.742 76.4 354.1 76.0418 354.1 75.6C354.1 75.1582 353.742 74.8 353.3 74.8C352.858 74.8 352.5 75.1582 352.5 75.6C352.5 76.0418 352.858 76.4 353.3 76.4Z" fill="black"/>
<path d="M353.3 66.9C353.742 66.9 354.1 66.5418 354.1 66.1C354.1 65.6582 353.742 65.3 353.3 65.3C352.858 65.3 352.5 65.6582 352.5 66.1C352.5 66.5418 352.858 66.9 353.3 66.9Z" fill="black"/>
<path d="M354.1 55.2C354.542 55.2 354.9 54.8419 354.9 54.4C354.9 53.9582 354.542 53.6 354.1 53.6C353.658 53.6 353.3 53.9582 353.3 54.4C353.3 54.8419 353.658 55.2 354.1 55.2Z" fill="black"/>
<path d="M356.6 45.9C357.042 45.9 357.4 45.5418 357.4 45.1C357.4 44.6582 357.042 44.3 356.6 44.3C356.158 44.3 355.8 44.6582 355.8 45.1C355.8 45.5418 356.158 45.9 356.6 45.9Z" fill="black"/>
<path d="M397.7 19.8C398.142 19.8 398.5 19.4418 398.5 19C398.5 18.5582 398.142 18.2 397.7 18.2C397.258 18.2 396.9 18.5582 396.9 19C396.9 19.4418 397.258 19.8 397.7 19.8Z" fill="black"/>
<path d="M417.4 22.3C417.842 22.3 418.2 21.9418 418.2 21.5C418.2 21.0582 417.842 20.7 417.4 20.7C416.958 20.7 416.6 21.0582 416.6 21.5C416.6 21.9418 416.958 22.3 417.4 22.3Z" fill="black"/>
<path d="M430 31.8C430.442 31.8 430.8 31.4418 430.8 31C430.8 30.5582 430.442 30.2 430 30.2C429.558 30.2 429.2 30.5582 429.2 31C429.2 31.4418 429.558 31.8 430 31.8Z" fill="black"/>
<path d="M427.3 64.9C427.742 64.9 428.1 64.5418 428.1 64.1C428.1 63.6582 427.742 63.3 427.3 63.3C426.858 63.3 426.5 63.6582 426.5 64.1C426.5 64.5418 426.858 64.9 427.3 64.9Z" fill="black"/>
<path d="M429.2 53.4C429.642 53.4 430 53.0418 430 52.6C430 52.1582 429.642 51.8 429.2 51.8C428.758 51.8 428.4 52.1582 428.4 52.6C428.4 53.0418 428.758 53.4 429.2 53.4Z" fill="black"/>
<path d="M405.6 55.5C406.042 55.5 406.4 55.1419 406.4 54.7C406.4 54.2582 406.042 53.9 405.6 53.9C405.158 53.9 404.8 54.2582 404.8 54.7C404.8 55.1419 405.158 55.5 405.6 55.5Z" fill="black"/>
<path d="M415.6 52.3C416.042 52.3 416.4 51.9418 416.4 51.5C416.4 51.0582 416.042 50.7 415.6 50.7C415.158 50.7 414.8 51.0582 414.8 51.5C414.8 51.9418 415.158 52.3 415.6 52.3Z" fill="black"/>
<path d="M422.1 61.2C422.542 61.2 422.9 60.8419 422.9 60.4C422.9 59.9582 422.542 59.6 422.1 59.6C421.658 59.6 421.3 59.9582 421.3 60.4C421.3 60.8419 421.658 61.2 422.1 61.2Z" fill="black"/>
<path d="M433.2 56.3C433.642 56.3 434 55.9418 434 55.5C434 55.0582 433.642 54.7 433.2 54.7C432.758 54.7 432.4 55.0582 432.4 55.5C432.4 55.9418 432.758 56.3 433.2 56.3Z" fill="black"/>
<path d="M422.9 51.9C423.342 51.9 423.7 51.5418 423.7 51.1C423.7 50.6582 423.342 50.3 422.9 50.3C422.458 50.3 422.1 50.6582 422.1 51.1C422.1 51.5418 422.458 51.9 422.9 51.9Z" fill="black"/>
<path d="M422.1 67.2C422.542 67.2 422.9 66.8419 422.9 66.4C422.9 65.9582 422.542 65.6 422.1 65.6C421.658 65.6 421.3 65.9582 421.3 66.4C421.3 66.8419 421.658 67.2 422.1 67.2Z" fill="black"/>
<path d="M415.8 61.2C416.242 61.2 416.6 60.8419 416.6 60.4C416.6 59.9582 416.242 59.6 415.8 59.6C415.358 59.6 415 59.9582 415 60.4C415 60.8419 415.358 61.2 415.8 61.2Z" fill="black"/>
<path d="M410.6 65.4C411.042 65.4 411.4 65.0418 411.4 64.6C411.4 64.1582 411.042 63.8 410.6 63.8C410.158 63.8 409.8 64.1582 409.8 64.6C409.8 65.0418 410.158 65.4 410.6 65.4Z" fill="black"/>
<path d="M407.1 83C407.542 83 407.9 82.6419 407.9 82.2C407.9 81.7582 407.542 81.4 407.1 81.4C406.658 81.4 406.3 81.7582 406.3 82.2C406.3 82.6419 406.658 83 407.1 83Z" fill="black"/>
<path d="M415 105.1C415.442 105.1 415.8 104.742 415.8 104.3C415.8 103.858 415.442 103.5 415 103.5C414.558 103.5 414.2 103.858 414.2 104.3C414.2 104.742 414.558 105.1 415 105.1Z" fill="black"/>
<path d="M402.3 83C402.742 83 403.1 82.6419 403.1 82.2C403.1 81.7582 402.742 81.4 402.3 81.4C401.858 81.4 401.5 81.7582 401.5 82.2C401.5 82.6419 401.858 83 402.3 83Z" fill="black"/>
<path d="M408.1 101.7C408.542 101.7 408.9 101.342 408.9 100.9C408.9 100.458 408.542 100.1 408.1 100.1C407.658 100.1 407.3 100.458 407.3 100.9C407.3 101.342 407.658 101.7 408.1 101.7Z" fill="black"/>
<path d="M401.7 100.6C402.142 100.6 402.5 100.242 402.5 99.8C402.5 99.3582 402.142 99 401.7 99C401.258 99 400.9 99.3582 400.9 99.8C400.9 100.242 401.258 100.6 401.7 100.6Z" fill="black"/>
<path d="M411.4 103.8C411.8 103.8 412.2 104.2 412.2 104.6C412.2 105 411.8 105.4 411.4 105.4C411 105.4 410.6 105 410.6 104.6C410.6 104.2 411 103.8 411.4 103.8Z" fill="black"/>
<path d="M401.5 104.6C401.942 104.6 402.3 104.242 402.3 103.8C402.3 103.358 401.942 103 401.5 103C401.058 103 400.7 103.358 400.7 103.8C400.7 104.242 401.058 104.6 401.5 104.6Z" fill="black"/>
<path d="M401.5 107.5C401.942 107.5 402.3 107.142 402.3 106.7C402.3 106.258 401.942 105.9 401.5 105.9C401.058 105.9 400.7 106.258 400.7 106.7C400.7 107.142 401.058 107.5 401.5 107.5Z" fill="black"/>
<path d="M401.7 114.2C402.142 114.2 402.5 113.842 402.5 113.4C402.5 112.958 402.142 112.6 401.7 112.6C401.258 112.6 400.9 112.958 400.9 113.4C400.9 113.842 401.258 114.2 401.7 114.2Z" fill="black"/>
<path d="M408.6 111.4C409.042 111.4 409.4 111.042 409.4 110.6C409.4 110.158 409.042 109.8 408.6 109.8C408.158 109.8 407.8 110.158 407.8 110.6C407.8 111.042 408.158 111.4 408.6 111.4Z" fill="black"/>
<path d="M415.8 66.4C416.242 66.4 416.6 66.0418 416.6 65.6C416.6 65.1582 416.242 64.8 415.8 64.8C415.358 64.8 415 65.1582 415 65.6C415 66.0418 415.358 66.4 415.8 66.4Z" fill="black"/>
<path d="M412.3 137.7C412.742 137.7 413.1 137.342 413.1 136.9C413.1 136.458 412.742 136.1 412.3 136.1C411.858 136.1 411.5 136.458 411.5 136.9C411.5 137.342 411.858 137.7 412.3 137.7Z" fill="black"/>
<path d="M422.3 131C422.742 131 423.1 130.642 423.1 130.2C423.1 129.758 422.742 129.4 422.3 129.4C421.858 129.4 421.5 129.758 421.5 130.2C421.5 130.642 421.858 131 422.3 131Z" fill="black"/>
<path d="M433.9 118.4C434.342 118.4 434.7 118.042 434.7 117.6C434.7 117.158 434.342 116.8 433.9 116.8C433.458 116.8 433.1 117.158 433.1 117.6C433.1 118.042 433.458 118.4 433.9 118.4Z" fill="black"/>
<path d="M440.7 98.4C441.142 98.4 441.5 98.0418 441.5 97.6C441.5 97.1582 441.142 96.8 440.7 96.8C440.258 96.8 439.9 97.1582 439.9 97.6C439.9 98.0418 440.258 98.4 440.7 98.4Z" fill="black"/>
<path d="M441.5 76.8C441.942 76.8 442.3 76.4418 442.3 76C442.3 75.5582 441.942 75.2 441.5 75.2C441.058 75.2 440.7 75.5582 440.7 76C440.7 76.4418 441.058 76.8 441.5 76.8Z" fill="black"/>
<path d="M441.5 67.2C441.942 67.2 442.3 66.8419 442.3 66.4C442.3 65.9582 441.942 65.6 441.5 65.6C441.058 65.6 440.7 65.9582 440.7 66.4C440.7 66.8419 441.058 67.2 441.5 67.2Z" fill="black"/>
<path d="M440.7 55.5C441.142 55.5 441.5 55.1419 441.5 54.7C441.5 54.2582 441.142 53.9 440.7 53.9C440.258 53.9 439.9 54.2582 439.9 54.7C439.9 55.1419 440.258 55.5 440.7 55.5Z" fill="black"/>
<path d="M438.2 46.3C438.642 46.3 439 45.9418 439 45.5C439 45.0582 438.642 44.7 438.2 44.7C437.758 44.7 437.4 45.0582 437.4 45.5C437.4 45.9418 437.758 46.3 438.2 46.3Z" fill="black"/>
<path d="M377.8 22.3C378.242 22.3 378.6 21.9418 378.6 21.5C378.6 21.0582 378.242 20.7 377.8 20.7C377.358 20.7 377 21.0582 377 21.5C377 21.9418 377.358 22.3 377.8 22.3Z" fill="black"/>
<path d="M365.2 31.8C365.642 31.8 366 31.4418 366 31C366 30.5582 365.642 30.2 365.2 30.2C364.758 30.2 364.4 30.5582 364.4 31C364.4 31.4418 364.758 31.8 365.2 31.8Z" fill="black"/>
<path d="M504.8 206.4C509.329 206.4 513 202.729 513 198.2C513 193.671 509.329 190 504.8 190C500.271 190 496.6 193.671 496.6 198.2C496.6 202.729 500.271 206.4 504.8 206.4Z" fill="black"/>
<path d="M399.403 242.536L410.811 249.472C411.369 249.811 411.72 250.447 411.72 251.133V265.004C411.72 265.69 411.369 266.326 410.811 266.665L399.403 273.601C398.855 273.934 398.145 273.934 397.597 273.601L397.597 273.601L386.189 266.665C386.189 266.665 386.189 266.665 386.189 266.665C385.631 266.326 385.28 265.69 385.28 265.004V251.133C385.28 250.447 385.631 249.811 386.189 249.472L397.597 242.536C397.597 242.536 397.597 242.536 397.597 242.536C397.872 242.369 398.184 242.281 398.5 242.281C398.816 242.281 399.129 242.369 399.403 242.536C399.403 242.536 399.403 242.536 399.403 242.536ZM397.376 273.976L397.376 273.976C397.717 274.183 398.105 274.293 398.5 274.293C398.895 274.293 399.283 274.183 399.624 273.976L399.624 273.976L411.032 267.04C411.724 266.619 412.15 265.839 412.15 265.004V251.133C412.15 250.299 411.724 249.518 411.032 249.097L411.032 249.097L399.624 242.161L399.624 242.161C398.941 241.746 398.059 241.746 397.376 242.161L397.376 242.161L385.968 249.097L385.968 249.097C385.276 249.518 384.85 250.299 384.85 251.133V265.004C384.85 265.838 385.276 266.619 385.968 267.04L385.968 267.04L397.376 273.976Z" stroke="url(#paint0_linear_39_234)" stroke-width="0.3"/>
<path d="M392.909 246.392C393.298 245.956 393.866 245.707 394.466 245.707C394.584 245.707 394.703 245.717 394.819 245.736L394.819 245.736L406.433 247.665C407.143 247.783 407.743 248.254 407.993 248.901L412.027 259.338C412.277 259.987 412.14 260.716 411.671 261.242L404.091 269.751L404.091 269.751C403.702 270.187 403.134 270.436 402.534 270.436C402.416 270.436 402.297 270.426 402.182 270.407L402.181 270.407L390.567 268.478L390.567 268.478C389.857 268.36 389.257 267.889 389.007 267.242L392.909 246.392ZM392.909 246.392L385.329 254.9L385.329 254.9C384.86 255.426 384.723 256.156 384.973 256.804C384.973 256.804 384.973 256.804 384.973 256.804L389.007 267.242L392.909 246.392ZM385.663 255.187L385.663 255.187L393.243 246.678C393.546 246.339 393.991 246.142 394.466 246.142C394.559 246.142 394.653 246.15 394.745 246.165C394.745 246.165 394.745 246.165 394.745 246.165L406.359 248.094C406.359 248.094 406.359 248.094 406.359 248.094C406.921 248.187 407.387 248.558 407.579 249.055L411.612 259.493C411.612 259.493 411.612 259.493 411.612 259.493C411.803 259.988 411.7 260.549 411.337 260.956C411.337 260.956 411.337 260.956 411.337 260.956L403.757 269.464L403.757 269.464C403.454 269.804 403.009 270 402.534 270C402.441 270 402.347 269.993 402.255 269.978L390.641 268.049L390.641 268.049C390.079 267.955 389.613 267.584 389.422 267.087L389.422 267.087L385.388 256.65C385.196 256.154 385.3 255.594 385.663 255.187Z" stroke="url(#paint1_linear_39_234)" stroke-width="0.3"/>
<path d="M401.761 248.557C401.68 248.557 401.598 248.564 401.518 248.577L392.128 250.098C391.638 250.177 391.228 250.494 391.057 250.924L387.796 259.153C387.625 259.583 387.719 260.068 388.039 260.418L394.168 267.127C394.434 267.418 394.825 267.585 395.239 267.585C395.32 267.585 395.402 267.579 395.482 267.566L404.872 266.045C405.362 265.966 405.773 265.65 405.943 265.219L409.204 256.99C409.375 256.56 409.282 256.075 408.962 255.725L402.833 249.016C402.566 248.725 402.176 248.557 401.761 248.557ZM395.239 267.711C394.784 267.711 394.355 267.528 394.062 267.208L387.933 260.499C387.582 260.114 387.479 259.582 387.667 259.11L390.928 250.881C391.115 250.409 391.566 250.061 392.104 249.974L401.495 248.453C401.582 248.439 401.672 248.431 401.761 248.431C402.216 248.431 402.645 248.615 402.938 248.935L409.067 255.644C409.419 256.029 409.521 256.561 409.334 257.033L406.073 265.262C405.886 265.734 405.435 266.082 404.896 266.169L395.506 267.69C395.418 267.704 395.328 267.711 395.239 267.711Z" stroke="url(#paint2_linear_39_234)" stroke-width="0.00561798"/>
<path d="M391.99 262.676L391.989 262.678L391.99 262.676C391.646 262.468 391.431 262.08 391.431 261.663V254.477C391.431 254.06 391.646 253.672 391.991 253.464L397.941 249.871C398.28 249.666 398.719 249.666 399.059 249.871L405.009 253.464L405.01 253.462L405.009 253.464C405.354 253.672 405.569 254.06 405.569 254.477V261.663C405.569 262.08 405.354 262.468 405.009 262.676L399.059 266.269C398.889 266.372 398.696 266.426 398.5 266.426C398.304 266.426 398.111 266.372 397.941 266.269L391.99 262.676ZM398.998 249.982L398.997 249.984L398.998 249.982C398.847 249.89 398.674 249.842 398.5 249.842C398.325 249.842 398.153 249.89 398.002 249.982L392.051 253.575C391.744 253.76 391.553 254.106 391.553 254.477L391.553 261.663C391.553 262.034 391.744 262.38 392.051 262.565L398.002 266.158C398.304 266.341 398.696 266.341 398.998 266.158L404.948 262.566C405.256 262.38 405.447 262.034 405.447 261.663L405.447 254.477C405.447 254.106 405.256 253.76 404.948 253.575L398.998 249.982Z" stroke="url(#paint3_linear_39_234)" stroke-width="0.00561798"/>
<path d="M401.543 248.728L401.543 248.728L392.153 250.249L392.153 250.249C391.711 250.32 391.348 250.604 391.199 250.98C391.199 250.98 391.199 250.98 391.199 250.98L387.938 259.209L387.938 259.209C387.79 259.583 387.869 260.006 388.152 260.315L388.05 260.408L388.152 260.315L394.281 267.023L394.179 267.117L394.281 267.023C394.517 267.282 394.865 267.433 395.239 267.433C395.312 267.433 395.386 267.427 395.457 267.415L401.543 248.728ZM401.543 248.728C401.615 248.716 401.688 248.71 401.761 248.71C402.135 248.71 402.484 248.861 402.72 249.119L408.849 255.828C408.849 255.828 408.849 255.828 408.849 255.828C409.131 256.137 409.21 256.56 409.062 256.934C409.062 256.934 409.062 256.934 409.062 256.934L405.801 265.163L405.801 265.163C405.652 265.539 405.29 265.823 404.848 265.895C404.848 265.895 404.848 265.895 404.848 265.895L395.458 267.415L401.543 248.728ZM387.524 259.053C387.315 259.581 387.431 260.175 387.82 260.602L387.82 260.602L393.949 267.311L393.949 267.311C394.272 267.664 394.743 267.864 395.239 267.864C395.337 267.864 395.434 267.856 395.53 267.841M387.524 259.053L401.47 248.302M387.524 259.053L390.786 250.824M387.524 259.053L390.786 250.824M395.53 267.841L395.53 267.841L395.509 267.711L395.53 267.841ZM395.53 267.841L404.92 266.32C405.508 266.225 406.006 265.845 406.215 265.319L409.476 257.089L409.476 257.089C409.685 256.561 409.57 255.968 409.18 255.541L409.18 255.541L403.051 248.832L403.051 248.832C402.728 248.479 402.257 248.279 401.761 248.279C401.664 248.279 401.566 248.287 401.47 248.302M401.47 248.302L401.47 248.302L401.491 248.432L401.491 248.432L401.47 248.302ZM401.47 248.302L392.08 249.823L392.08 249.823M401.47 248.302L392.08 249.823M390.786 250.824C390.994 250.298 391.493 249.918 392.08 249.823M390.786 250.824L392.08 249.823" stroke="url(#paint4_linear_39_234)" stroke-width="0.3"/>
<path d="M398.081 250.112L398.081 250.112L392.13 253.705L392.13 253.705C391.871 253.862 391.706 254.157 391.706 254.477L391.706 261.663C391.706 261.983 391.871 262.278 392.13 262.435L392.13 262.435L398.081 266.028L398.081 266.028C398.335 266.181 398.665 266.181 398.919 266.028L398.919 266.028L404.869 262.435C404.869 262.435 404.869 262.435 404.87 262.435C405.129 262.278 405.294 261.983 405.294 261.663L405.294 254.477C405.294 254.157 405.129 253.862 404.87 253.705L404.87 253.705L398.919 250.112L398.081 250.112ZM398.081 250.112C398.208 250.035 398.353 249.995 398.5 249.995M398.081 250.112L398.5 249.995M398.5 249.995C398.646 249.995 398.791 250.035 398.919 250.112L398.5 249.995ZM391.912 262.807L397.862 266.4L397.862 266.4C398.055 266.517 398.276 266.579 398.5 266.579C398.724 266.579 398.945 266.517 399.138 266.4L399.138 266.4L405.088 262.807L405.088 262.807C405.481 262.57 405.721 262.131 405.721 261.663V254.477C405.721 254.009 405.481 253.57 405.088 253.333C405.088 253.333 405.088 253.333 405.088 253.333L399.138 249.74L399.138 249.74C398.75 249.506 398.25 249.506 397.862 249.74L391.912 253.333L391.912 253.333C391.519 253.57 391.278 254.009 391.278 254.477V261.663C391.278 262.131 391.519 262.57 391.911 262.807C391.911 262.807 391.912 262.807 391.912 262.807Z" stroke="url(#paint5_linear_39_234)" stroke-width="0.3"/>
<path d="M355.132 289.324H349.934V284.143H347.097V297H349.934V291.785H355.132V297H357.97V284.143H355.132V289.324ZM369.787 284.143H361.902V297H369.787V294.506H364.74V291.81H369.201V289.341H364.74V286.637H369.787V284.143ZM375.812 297L378.374 292.957L380.919 297H384.342L379.964 290.454L384.091 284.143H380.693L378.374 287.901L376.039 284.143H372.64L376.775 290.454L372.389 297H375.812ZM390.116 297V284.143H387.278V297H390.116ZM407.115 289.626H400.887V291.911H404.127C403.599 293.526 402.143 294.614 400.335 294.614C398.066 294.614 396.334 292.882 396.334 290.571C396.334 288.261 398.066 286.528 400.318 286.528C401.674 286.528 402.821 287.123 403.541 288.102L406.018 286.738C404.805 284.98 402.762 283.917 400.335 283.917C396.409 283.917 393.488 286.738 393.488 290.571C393.488 294.414 396.409 297.226 400.335 297.226C404.261 297.226 407.182 294.414 407.182 290.555C407.182 290.211 407.157 289.885 407.115 289.626ZM416.781 297.226C420.707 297.226 423.628 294.414 423.628 290.571C423.628 286.729 420.707 283.917 416.781 283.917C412.855 283.917 409.934 286.729 409.934 290.571C409.934 294.414 412.855 297.226 416.781 297.226ZM416.781 294.614C414.513 294.614 412.78 292.882 412.78 290.571C412.78 288.261 414.513 286.528 416.781 286.528C419.05 286.528 420.782 288.261 420.782 290.571C420.782 292.882 419.05 294.614 416.781 294.614ZM436.676 292.79L429.804 284.143H427.008V297H429.829V288.328L436.685 297H439.506V284.143H436.676V292.79ZM447.724 297.167C449.189 297.167 450.503 296.464 451.256 295.376V297H452.344V288.136H451.256V289.759C450.503 288.671 449.189 287.968 447.724 287.968C445.162 287.968 443.103 290.027 443.103 292.564C443.103 295.108 445.154 297.167 447.724 297.167ZM447.724 296.113C445.773 296.113 444.191 294.522 444.191 292.564C444.191 290.613 445.773 289.031 447.724 289.031C449.682 289.031 451.256 290.613 451.256 292.564C451.256 294.531 449.691 296.113 447.724 296.113ZM456.997 285.658C457.449 285.658 457.842 285.281 457.842 284.821C457.842 284.344 457.449 283.975 456.997 283.975C456.536 283.975 456.143 284.344 456.143 284.821C456.143 285.281 456.536 285.658 456.997 285.658ZM457.541 297V288.136H456.453V297H457.541Z" fill="black"/>
<defs>
<linearGradient id="paint0_linear_39_234" x1="398.5" y1="242" x2="398.5" y2="274.143" gradientUnits="userSpaceOnUse">
<stop stop-color="#6218FF"/>
<stop offset="1" stop-color="#45EFE3"/>
</linearGradient>
<linearGradient id="paint1_linear_39_234" x1="398.5" y1="245.857" x2="398.5" y2="270.286" gradientUnits="userSpaceOnUse">
<stop stop-color="#6218FF"/>
<stop offset="1" stop-color="#45EFE3"/>
</linearGradient>
<linearGradient id="paint2_linear_39_234" x1="398.5" y1="248.429" x2="398.5" y2="267.714" gradientUnits="userSpaceOnUse">
<stop stop-color="#6218FF"/>
<stop offset="1" stop-color="#45EFE3"/>
</linearGradient>
<linearGradient id="paint3_linear_39_234" x1="398.5" y1="249.714" x2="398.5" y2="266.429" gradientUnits="userSpaceOnUse">
<stop stop-color="#6218FF"/>
<stop offset="1" stop-color="#45EFE3"/>
</linearGradient>
<linearGradient id="paint4_linear_39_234" x1="398.5" y1="248.429" x2="398.5" y2="267.714" gradientUnits="userSpaceOnUse">
<stop stop-color="#6218FF"/>
<stop offset="1" stop-color="#45EFE3"/>
</linearGradient>
<linearGradient id="paint5_linear_39_234" x1="398.5" y1="249.714" x2="398.5" y2="266.429" gradientUnits="userSpaceOnUse">
<stop stop-color="#6218FF"/>
<stop offset="1" stop-color="#45EFE3"/>
</linearGradient>
</defs>
</svg>
