<svg width="800" height="857" viewBox="0 0 800 857" fill="none" xmlns="http://www.w3.org/2000/svg">
<path d="M420.9 772.2V819C420.9 867.8 476.3 869.3 476.3 823.5V771.7L420.9 772.2Z" fill="#60504B"/>
<path d="M463.9 793.5H433.3V797.9H463.9V793.5Z" fill="white"/>
<path d="M463.9 801.9H433.3V806.3H463.9V801.9Z" fill="white"/>
<path d="M463.9 810.4H433.3V814.8H463.9V810.4Z" fill="white"/>
<path d="M317.6 772.2V819C317.6 867.8 373 869.3 373 823.5V771.7L317.6 772.2Z" fill="#60504B"/>
<path d="M291.9 398C291.9 464.4 291.9 546.9 291.9 626.2C291.9 682 291.9 736.2 291.9 782C348.5 782 343.7 782 384.6 782C384.6 735.2 384.6 680.6 384.6 627.5C384.6 551.6 384.6 478.7 384.6 435.9C390.5 435.9 405.1 435.9 410.5 435.9C410.5 477.2 410.5 551.7 410.5 627.5C410.5 682.4 410.5 737.9 410.5 782C455.5 782 446.1 782 503.2 782C503.2 739 503.2 684.5 503.2 627.5C503.2 548 503.2 463.5 503.2 398H291.9Z" fill="#B1C9C3"/>
<path d="M360.6 793.5H330V797.9H360.6V793.5Z" fill="white"/>
<path d="M360.6 801.9H330V806.3H360.6V801.9Z" fill="white"/>
<path d="M360.6 810.4H330V814.8H360.6V810.4Z" fill="white"/>
<path d="M448 168.9C420.2 155.4 379.7 153.1 346.7 168.8C341.6 158 332.7 123 333.6 88.4C334.7 47.9 349.1 7.9 398.9 8C446.7 8 460.7 47.1 461.4 87.7C461.4 120.8 448 168.9 448 168.9Z" fill="#60504B"/>
<path d="M459.2 94.9C465.883 94.9 471.3 89.4827 471.3 82.8C471.3 76.1174 465.883 70.7 459.2 70.7C452.517 70.7 447.1 76.1174 447.1 82.8C447.1 89.4827 452.517 94.9 459.2 94.9Z" fill="#DF7977"/>
<path d="M336.6 94.9C343.283 94.9 348.7 89.4827 348.7 82.8C348.7 76.1174 343.283 70.7 336.6 70.7C329.917 70.7 324.5 76.1174 324.5 82.8C324.5 89.4827 329.917 94.9 336.6 94.9Z" fill="#DF7977"/>
<path d="M398.5 133.9C398.942 133.9 399.3 133.542 399.3 133.1C399.3 132.658 398.942 132.3 398.5 132.3C398.058 132.3 397.7 132.658 397.7 133.1C397.7 133.542 398.058 133.9 398.5 133.9Z" fill="black"/>
<path d="M387.6 131.9C388.042 131.9 388.4 131.542 388.4 131.1C388.4 130.658 388.042 130.3 387.6 130.3C387.158 130.3 386.8 130.658 386.8 131.1C386.8 131.542 387.158 131.9 387.6 131.9Z" fill="black"/>
<path d="M409.4 131.9C409.842 131.9 410.2 131.542 410.2 131.1C410.2 130.658 409.842 130.3 409.4 130.3C408.958 130.3 408.6 130.658 408.6 131.1C408.6 131.542 408.958 131.9 409.4 131.9Z" fill="black"/>
<path d="M353.3 76.4C353.742 76.4 354.1 76.0418 354.1 75.6C354.1 75.1582 353.742 74.8 353.3 74.8C352.858 74.8 352.5 75.1582 352.5 75.6C352.5 76.0418 352.858 76.4 353.3 76.4Z" fill="black"/>
<path d="M353.3 66.9C353.742 66.9 354.1 66.5418 354.1 66.1C354.1 65.6582 353.742 65.3 353.3 65.3C352.858 65.3 352.5 65.6582 352.5 66.1C352.5 66.5418 352.858 66.9 353.3 66.9Z" fill="black"/>
<path d="M441.5 76.8C441.942 76.8 442.3 76.4418 442.3 76C442.3 75.5582 441.942 75.2 441.5 75.2C441.058 75.2 440.7 75.5582 440.7 76C440.7 76.4418 441.058 76.8 441.5 76.8Z" fill="black"/>
<path d="M441.5 67.2C441.942 67.2 442.3 66.8418 442.3 66.4C442.3 65.9582 441.942 65.6 441.5 65.6C441.058 65.6 440.7 65.9582 440.7 66.4C440.7 66.8418 441.058 67.2 441.5 67.2Z" fill="black"/>
<path d="M397.7 15.8C398.142 15.8 398.5 15.4418 398.5 15C398.5 14.5582 398.142 14.2 397.7 14.2C397.258 14.2 396.9 14.5582 396.9 15C396.9 15.4418 397.258 15.8 397.7 15.8Z" fill="black"/>
<path d="M415.4 18.3C415.842 18.3 416.2 17.9418 416.2 17.5C416.2 17.0582 415.842 16.7 415.4 16.7C414.958 16.7 414.6 17.0582 414.6 17.5C414.6 17.9418 414.958 18.3 415.4 18.3Z" fill="black"/>
<path d="M379.8 18.3C380.242 18.3 380.6 17.9418 380.6 17.5C380.6 17.0582 380.242 16.7 379.8 16.7C379.358 16.7 379 17.0582 379 17.5C379 17.9418 379.358 18.3 379.8 18.3Z" fill="black"/>
<path d="M424.6 11.2C425.9 7.6 426.7 3.8 427.1 0C429.7 3.1 430.9 7.39999 430.3 11.4C430.2 12.1 430 12.9 429.6 13.5C428.9 14.4 427.7 14.7 426.6 14.9C424.8 15.3 423 15.7 421.1 15.9C422.7 14.5 423.9 13.2 424.6 11.2Z" fill="#60504B"/>
<path d="M423.5 15.7C429.3 15.3 434.3 10 434.5 4.20001C436.8 5.20001 437.9 8.10002 437.2 10.5C436.5 12.9 434.3 14.7 431.9 15.4C429.5 16.1 426.9 15.8 424.5 15.1" fill="#60504B"/>
<path d="M273.089 416.906C271.789 343.706 284.789 288.006 305.389 249.506C317.989 225.906 333.389 208.806 350.189 197.906C364.889 188.406 380.689 183.806 396.389 184.006C411.989 184.206 427.689 189.206 442.289 198.806C458.789 209.706 474.089 226.606 486.589 249.506C507.889 288.306 521.289 344.306 519.689 416.906H273.089Z" fill="#BF4C68"/>
<path d="M354.132 324.324H348.934V319.143H346.097V332H348.934V326.785H354.132V332H356.97V319.143H354.132V324.324Z" fill="black"/>
<path d="M368.787 319.143H360.902V332H368.787V329.506H363.74V326.81H368.201V324.341H363.74V321.637H368.787V319.143Z" fill="black"/>
<path d="M374.812 332L377.374 327.957L379.919 332H383.342L378.964 325.454L383.091 319.143H379.693L377.374 322.901L375.039 319.143H371.64L375.775 325.454L371.389 332H374.812Z" fill="black"/>
<path d="M389.116 332V319.143H386.278V332H389.116Z" fill="black"/>
<path d="M406.115 324.626H399.887V326.911H403.127C402.599 328.526 401.143 329.614 399.335 329.614C397.066 329.614 395.334 327.882 395.334 325.571C395.334 323.261 397.066 321.528 399.318 321.528C400.674 321.528 401.821 322.123 402.541 323.102L405.018 321.738C403.805 319.98 401.762 318.917 399.335 318.917C395.409 318.917 392.488 321.738 392.488 325.571C392.488 329.414 395.409 332.226 399.335 332.226C403.261 332.226 406.182 329.414 406.182 325.555C406.182 325.211 406.157 324.885 406.115 324.626Z" fill="black"/>
<path d="M415.781 332.226C419.707 332.226 422.628 329.414 422.628 325.571C422.628 321.729 419.707 318.917 415.781 318.917C411.855 318.917 408.934 321.729 408.934 325.571C408.934 329.414 411.855 332.226 415.781 332.226ZM415.781 329.614C413.513 329.614 411.78 327.882 411.78 325.571C411.78 323.261 413.513 321.528 415.781 321.528C418.05 321.528 419.782 323.261 419.782 325.571C419.782 327.882 418.05 329.614 415.781 329.614Z" fill="black"/>
<path d="M435.676 327.79L428.804 319.143H426.008V332H428.829V323.328L435.685 332H438.506V319.143H435.676V327.79Z" fill="black"/>
<path d="M446.724 332.167C448.189 332.167 449.503 331.464 450.256 330.376V332H451.344V323.136H450.256V324.759C449.503 323.671 448.189 322.968 446.724 322.968C444.162 322.968 442.103 325.027 442.103 327.564C442.103 330.108 444.154 332.167 446.724 332.167ZM446.724 331.113C444.773 331.113 443.191 329.522 443.191 327.564C443.191 325.613 444.773 324.031 446.724 324.031C448.682 324.031 450.256 325.613 450.256 327.564C450.256 329.531 448.691 331.113 446.724 331.113Z" fill="black"/>
<path d="M455.997 320.658C456.449 320.658 456.842 320.281 456.842 319.821C456.842 319.344 456.449 318.975 455.997 318.975C455.536 318.975 455.143 319.344 455.143 319.821C455.143 320.281 455.536 320.658 455.997 320.658ZM456.541 332V323.136H455.453V332H456.541Z" fill="black"/>
<path d="M398.4 216.6C410.55 216.6 420.4 209.302 420.4 200.3C420.4 191.298 410.55 184 398.4 184C386.25 184 376.4 191.298 376.4 200.3C376.4 209.302 386.25 216.6 398.4 216.6Z" fill="white"/>
<path d="M387.2 114.7H408.1C408.1 114.7 412.4 176.4 413.8 199.9C411.7 209.6 404.7 211.2 398.3 211C390.1 210.8 382.4 206.3 381.2 198.5L387.2 114.7Z" fill="#F3AF9D"/>
<path d="M387.2 114.7H408.1C410 133.7 386.4 198.5 381.2 198.5L387.2 114.7Z" fill="#DD9B8E"/>
<path d="M398.2 134.9C429.349 134.9 454.6 109.112 454.6 77.3C454.6 45.4884 429.349 19.7 398.2 19.7C367.051 19.7 341.8 45.4884 341.8 77.3C341.8 109.112 367.051 134.9 398.2 134.9Z" fill="#F3AF9D"/>
<path d="M398.5 133.9C398.942 133.9 399.3 133.542 399.3 133.1C399.3 132.658 398.942 132.3 398.5 132.3C398.058 132.3 397.7 132.658 397.7 133.1C397.7 133.542 398.058 133.9 398.5 133.9Z" fill="black"/>
<path d="M387.6 131.9C388.042 131.9 388.4 131.542 388.4 131.1C388.4 130.658 388.042 130.3 387.6 130.3C387.158 130.3 386.8 130.658 386.8 131.1C386.8 131.542 387.158 131.9 387.6 131.9Z" fill="black"/>
<path d="M409.4 131.9C409.842 131.9 410.2 131.542 410.2 131.1C410.2 130.658 409.842 130.3 409.4 130.3C408.958 130.3 408.6 130.658 408.6 131.1C408.6 131.542 408.958 131.9 409.4 131.9Z" fill="black"/>
<path d="M353.3 76.4C353.742 76.4 354.1 76.0418 354.1 75.6C354.1 75.1582 353.742 74.8 353.3 74.8C352.858 74.8 352.5 75.1582 352.5 75.6C352.5 76.0418 352.858 76.4 353.3 76.4Z" fill="black"/>
<path d="M353.3 66.9C353.742 66.9 354.1 66.5418 354.1 66.1C354.1 65.6582 353.742 65.3 353.3 65.3C352.858 65.3 352.5 65.6582 352.5 66.1C352.5 66.5418 352.858 66.9 353.3 66.9Z" fill="black"/>
<path d="M441.5 76.8C441.942 76.8 442.3 76.4418 442.3 76C442.3 75.5582 441.942 75.2 441.5 75.2C441.058 75.2 440.7 75.5582 440.7 76C440.7 76.4418 441.058 76.8 441.5 76.8Z" fill="black"/>
<path d="M441.5 67.2C441.942 67.2 442.3 66.8419 442.3 66.4C442.3 65.9582 441.942 65.6 441.5 65.6C441.058 65.6 440.7 65.9582 440.7 66.4C440.7 66.8419 441.058 67.2 441.5 67.2Z" fill="black"/>
<path d="M397.7 15.8C398.142 15.8 398.5 15.4418 398.5 15C398.5 14.5582 398.142 14.2 397.7 14.2C397.258 14.2 396.9 14.5582 396.9 15C396.9 15.4418 397.258 15.8 397.7 15.8Z" fill="black"/>
<path d="M415.4 18.3C415.842 18.3 416.2 17.9418 416.2 17.5C416.2 17.0582 415.842 16.7 415.4 16.7C414.958 16.7 414.6 17.0582 414.6 17.5C414.6 17.9418 414.958 18.3 415.4 18.3Z" fill="black"/>
<path d="M379.8 18.3C380.242 18.3 380.6 17.9418 380.6 17.5C380.6 17.0582 380.242 16.7 379.8 16.7C379.358 16.7 379 17.0582 379 17.5C379 17.9418 379.358 18.3 379.8 18.3Z" fill="black"/>
<path d="M351.7 70.9C354.8 64.8 364.8 64.2 372.8 64.8C373.5 67.1 373.5 68.6 372.7 68.5C369.6 68.4 362.5 64.6 351.7 70.9Z" fill="#2C323A"/>
<path d="M365.5 53C365.942 53 366.3 52.6418 366.3 52.2C366.3 51.7582 365.942 51.4 365.5 51.4C365.058 51.4 364.7 51.7582 364.7 52.2C364.7 52.6418 365.058 53 365.5 53Z" fill="black"/>
<path d="M388.8 56C389.242 56 389.6 55.6418 389.6 55.2C389.6 54.7582 389.242 54.4 388.8 54.4C388.358 54.4 388 54.7582 388 55.2C388 55.6418 388.358 56 388.8 56Z" fill="black"/>
<path d="M379 52C379.442 52 379.8 51.6418 379.8 51.2C379.8 50.7582 379.442 50.4 379 50.4C378.558 50.4 378.2 50.7582 378.2 51.2C378.2 51.6418 378.558 52 379 52Z" fill="black"/>
<path d="M361.5 56.7C361.942 56.7 362.3 56.3418 362.3 55.9C362.3 55.4582 361.942 55.1 361.5 55.1C361.058 55.1 360.7 55.4582 360.7 55.9C360.7 56.3418 361.058 56.7 361.5 56.7Z" fill="black"/>
<path d="M371.7 52C372.142 52 372.5 51.6418 372.5 51.2C372.5 50.7582 372.142 50.4 371.7 50.4C371.258 50.4 370.9 50.7582 370.9 51.2C370.9 51.6418 371.258 52 371.7 52Z" fill="black"/>
<path d="M439.7 69.8C432.2 66.4 430.9 67.6 420.7 68.8C420.4 68 420.2 67.1 420.6 64.8C426.6 65.3 436.6 62.5 441.7 70.9C441 70.5 440.4 70.1 439.7 69.8Z" fill="#2C323A"/>
<path d="M429.2 53.4C429.642 53.4 430 53.0418 430 52.6C430 52.1582 429.642 51.8 429.2 51.8C428.758 51.8 428.4 52.1582 428.4 52.6C428.4 53.0418 428.758 53.4 429.2 53.4Z" fill="black"/>
<path d="M405.6 55.5C406.042 55.5 406.4 55.1418 406.4 54.7C406.4 54.2581 406.042 53.9 405.6 53.9C405.158 53.9 404.8 54.2581 404.8 54.7C404.8 55.1418 405.158 55.5 405.6 55.5Z" fill="black"/>
<path d="M415.6 52.3C416.042 52.3 416.4 51.9418 416.4 51.5C416.4 51.0582 416.042 50.7 415.6 50.7C415.158 50.7 414.8 51.0582 414.8 51.5C414.8 51.9418 415.158 52.3 415.6 52.3Z" fill="black"/>
<path d="M433.2 56.3C433.642 56.3 434 55.9418 434 55.5C434 55.0582 433.642 54.7 433.2 54.7C432.758 54.7 432.4 55.0582 432.4 55.5C432.4 55.9418 432.758 56.3 433.2 56.3Z" fill="black"/>
<path d="M422.9 51.9C423.342 51.9 423.7 51.5418 423.7 51.1C423.7 50.6582 423.342 50.3 422.9 50.3C422.458 50.3 422.1 50.6582 422.1 51.1C422.1 51.5418 422.458 51.9 422.9 51.9Z" fill="black"/>
<path d="M363.1 102.7C367.408 102.7 370.9 99.9242 370.9 96.5C370.9 93.0758 367.408 90.3 363.1 90.3C358.792 90.3 355.3 93.0758 355.3 96.5C355.3 99.9242 358.792 102.7 363.1 102.7Z" fill="#DF7977"/>
<path d="M366 86.4C367.988 86.4 369.6 83.8032 369.6 80.6C369.6 77.3967 367.988 74.8 366 74.8C364.012 74.8 362.4 77.3967 362.4 80.6C362.4 83.8032 364.012 86.4 366 86.4Z" fill="#2C323A"/>
<path d="M367.7 64.9C368.142 64.9 368.5 64.5418 368.5 64.1C368.5 63.6582 368.142 63.3 367.7 63.3C367.258 63.3 366.9 63.6582 366.9 64.1C366.9 64.5418 367.258 64.9 367.7 64.9Z" fill="black"/>
<path d="M372.9 61.2C373.342 61.2 373.7 60.8418 373.7 60.4C373.7 59.9582 373.342 59.6 372.9 59.6C372.458 59.6 372.1 59.9582 372.1 60.4C372.1 60.8418 372.458 61.2 372.9 61.2Z" fill="black"/>
<path d="M372.9 67.2C373.342 67.2 373.7 66.8418 373.7 66.4C373.7 65.9582 373.342 65.6 372.9 65.6C372.458 65.6 372.1 65.9582 372.1 66.4C372.1 66.8418 372.458 67.2 372.9 67.2Z" fill="black"/>
<path d="M379.2 61.2C379.642 61.2 380 60.8418 380 60.4C380 59.9582 379.642 59.6 379.2 59.6C378.758 59.6 378.4 59.9582 378.4 60.4C378.4 60.8418 378.758 61.2 379.2 61.2Z" fill="black"/>
<path d="M384.4 65.4C384.842 65.4 385.2 65.0418 385.2 64.6C385.2 64.1582 384.842 63.8 384.4 63.8C383.958 63.8 383.6 64.1582 383.6 64.6C383.6 65.0418 383.958 65.4 384.4 65.4Z" fill="black"/>
<path d="M379.2 66.4C379.642 66.4 380 66.0418 380 65.6C380 65.1582 379.642 64.8 379.2 64.8C378.758 64.8 378.4 65.1582 378.4 65.6C378.4 66.0418 378.758 66.4 379.2 66.4Z" fill="black"/>
<path d="M427.8 86.4C429.788 86.4 431.4 83.8032 431.4 80.6C431.4 77.3967 429.788 74.8 427.8 74.8C425.811 74.8 424.2 77.3967 424.2 80.6C424.2 83.8032 425.811 86.4 427.8 86.4Z" fill="#2C323A"/>
<path d="M432.2 102.7C436.508 102.7 440 99.9242 440 96.5C440 93.0758 436.508 90.3 432.2 90.3C427.892 90.3 424.4 93.0758 424.4 96.5C424.4 99.9242 427.892 102.7 432.2 102.7Z" fill="#DF7977"/>
<path d="M427.3 64.9C427.742 64.9 428.1 64.5418 428.1 64.1C428.1 63.6582 427.742 63.3 427.3 63.3C426.858 63.3 426.5 63.6582 426.5 64.1C426.5 64.5418 426.858 64.9 427.3 64.9Z" fill="black"/>
<path d="M422.1 61.2C422.542 61.2 422.9 60.8418 422.9 60.4C422.9 59.9582 422.542 59.6 422.1 59.6C421.658 59.6 421.3 59.9582 421.3 60.4C421.3 60.8418 421.658 61.2 422.1 61.2Z" fill="black"/>
<path d="M422.1 67.2C422.542 67.2 422.9 66.8418 422.9 66.4C422.9 65.9582 422.542 65.6 422.1 65.6C421.658 65.6 421.3 65.9582 421.3 66.4C421.3 66.8418 421.658 67.2 422.1 67.2Z" fill="black"/>
<path d="M415.8 61.2C416.242 61.2 416.6 60.8418 416.6 60.4C416.6 59.9582 416.242 59.6 415.8 59.6C415.358 59.6 415 59.9582 415 60.4C415 60.8418 415.358 61.2 415.8 61.2Z" fill="black"/>
<path d="M410.6 65.4C411.042 65.4 411.4 65.0418 411.4 64.6C411.4 64.1582 411.042 63.8 410.6 63.8C410.158 63.8 409.8 64.1582 409.8 64.6C409.8 65.0418 410.158 65.4 410.6 65.4Z" fill="black"/>
<path d="M415.8 66.4C416.242 66.4 416.6 66.0418 416.6 65.6C416.6 65.1582 416.242 64.8 415.8 64.8C415.358 64.8 415 65.1582 415 65.6C415 66.0418 415.358 66.4 415.8 66.4Z" fill="black"/>
<path d="M383.8 103.6C384.2 103.6 384.6 104 384.6 104.4C384.6 104.8 384.2 105.2 383.8 105.2C383.4 105.2 383 104.8 383 104.4C383 104 383.4 103.6 383.8 103.6Z" fill="black"/>
<path d="M397.5 104.9C397.942 104.9 398.3 104.542 398.3 104.1C398.3 103.658 397.942 103.3 397.5 103.3C397.058 103.3 396.7 103.658 396.7 104.1C396.7 104.542 397.058 104.9 397.5 104.9Z" fill="black"/>
<path d="M393.6 104.4C394.042 104.4 394.4 104.042 394.4 103.6C394.4 103.158 394.042 102.8 393.6 102.8C393.158 102.8 392.8 103.158 392.8 103.6C392.8 104.042 393.158 104.4 393.6 104.4Z" fill="black"/>
<path d="M411.2 103.6C411.6 103.6 412 104 412 104.4C412 104.8 411.6 105.2 411.2 105.2C410.8 105.2 410.4 104.8 410.4 104.4C410.4 104 410.8 103.6 411.2 103.6Z" fill="black"/>
<path d="M401.4 104.4C401.842 104.4 402.2 104.042 402.2 103.6C402.2 103.158 401.842 102.8 401.4 102.8C400.958 102.8 400.6 103.158 400.6 103.6C400.6 104.042 400.958 104.4 401.4 104.4Z" fill="black"/>
<path d="M384.6 104.4C384.6 104.4 392 104.2 397.5 104.2C403 104.2 411.4 104.1 411.4 104.1C411.4 104.1 405.3 108.1 397.5 108.1C389.6 108.1 384.6 104.4 384.6 104.4Z" fill="#2C323A" stroke="#2C323A" stroke-width="2" stroke-miterlimit="10"/>
<path d="M397.5 107.9C397.942 107.9 398.3 107.542 398.3 107.1C398.3 106.658 397.942 106.3 397.5 106.3C397.058 106.3 396.7 106.658 396.7 107.1C396.7 107.542 397.058 107.9 397.5 107.9Z" fill="black"/>
<path d="M393.6 107.2C394.042 107.2 394.4 106.842 394.4 106.4C394.4 105.958 394.042 105.6 393.6 105.6C393.158 105.6 392.8 105.958 392.8 106.4C392.8 106.842 393.158 107.2 393.6 107.2Z" fill="black"/>
<path d="M401.4 107.2C401.842 107.2 402.2 106.842 402.2 106.4C402.2 105.958 401.842 105.6 401.4 105.6C400.958 105.6 400.6 105.958 400.6 106.4C400.6 106.842 400.958 107.2 401.4 107.2Z" fill="black"/>
<path d="M409.7 31.2C409.5 39.7 401.3 50 383.8 54.5C381.7 55 392.8 46.3 397.5 36C377.8 59.6 367.7 63.3 333.7 61.6C338.8 38.9 360 8.29999 397 7.89999C434 7.49999 454.1 29.5 462.1 64.2C440.2 59.1 422.5 61.2 409.7 31.2Z" fill="#60504B"/>
<path d="M398.5 133.9C398.942 133.9 399.3 133.542 399.3 133.1C399.3 132.658 398.942 132.3 398.5 132.3C398.058 132.3 397.7 132.658 397.7 133.1C397.7 133.542 398.058 133.9 398.5 133.9Z" fill="black"/>
<path d="M387.6 131.9C388.042 131.9 388.4 131.542 388.4 131.1C388.4 130.658 388.042 130.3 387.6 130.3C387.158 130.3 386.8 130.658 386.8 131.1C386.8 131.542 387.158 131.9 387.6 131.9Z" fill="black"/>
<path d="M409.4 131.9C409.842 131.9 410.2 131.542 410.2 131.1C410.2 130.658 409.842 130.3 409.4 130.3C408.958 130.3 408.6 130.658 408.6 131.1C408.6 131.542 408.958 131.9 409.4 131.9Z" fill="black"/>
<path d="M353.3 76.4C353.742 76.4 354.1 76.0418 354.1 75.6C354.1 75.1582 353.742 74.8 353.3 74.8C352.858 74.8 352.5 75.1582 352.5 75.6C352.5 76.0418 352.858 76.4 353.3 76.4Z" fill="black"/>
<path d="M353.3 66.9C353.742 66.9 354.1 66.5418 354.1 66.1C354.1 65.6582 353.742 65.3 353.3 65.3C352.858 65.3 352.5 65.6582 352.5 66.1C352.5 66.5418 352.858 66.9 353.3 66.9Z" fill="black"/>
<path d="M441.5 76.8C441.942 76.8 442.3 76.4418 442.3 76C442.3 75.5582 441.942 75.2 441.5 75.2C441.058 75.2 440.7 75.5582 440.7 76C440.7 76.4418 441.058 76.8 441.5 76.8Z" fill="black"/>
<path d="M441.5 67.2C441.942 67.2 442.3 66.8418 442.3 66.4C442.3 65.9582 441.942 65.6 441.5 65.6C441.058 65.6 440.7 65.9582 440.7 66.4C440.7 66.8418 441.058 67.2 441.5 67.2Z" fill="black"/>
<path d="M397.7 15.8C398.142 15.8 398.5 15.4418 398.5 15C398.5 14.5582 398.142 14.2 397.7 14.2C397.258 14.2 396.9 14.5582 396.9 15C396.9 15.4418 397.258 15.8 397.7 15.8Z" fill="black"/>
<path d="M415.4 18.3C415.842 18.3 416.2 17.9418 416.2 17.5C416.2 17.0582 415.842 16.7 415.4 16.7C414.958 16.7 414.6 17.0582 414.6 17.5C414.6 17.9418 414.958 18.3 415.4 18.3Z" fill="black"/>
<path d="M379.8 18.3C380.242 18.3 380.6 17.9418 380.6 17.5C380.6 17.0582 380.242 16.7 379.8 16.7C379.358 16.7 379 17.0582 379 17.5C379 17.9418 379.358 18.3 379.8 18.3Z" fill="black"/>
<path d="M741.4 230.4L758.4 223.6C758.4 223.6 764.5 229.1 771.4 234.8C778.3 240.5 766.7 253.2 756.1 245.4C745.4 237.6 741.4 230.4 741.4 230.4Z" fill="#F3AF9D"/>
<path d="M183.4 171.3L186.4 228.1C245.3 228.4 279.9 225.8 305.7 245.8L354.4 195.6C300.1 168.9 239.4 167.9 183.4 171.3Z" fill="#E094A3"/>
<path d="M443.3 194.6L486.6 247.8C513.6 231.6 554.3 231.5 613.2 231.1V174.3C557.2 170.9 514 163.9 443.3 194.6Z" fill="#E094A3"/>
<path d="M188.6 177.9C140.9 180.6 65.5 186.8 28.4 192.1C-8.70005 197.4 -11.7 232.2 33.7 231.6C79.1 231 128.9 228.1 193.4 219.5L188.6 177.9Z" fill="#F3AF9D"/>
<path d="M53.1999 230.4L36.1999 223.6C36.1999 223.6 30.0999 229.1 23.1999 234.8C16.2999 240.5 27.8999 253.2 38.4999 245.4C49.1999 237.6 53.1999 230.4 53.1999 230.4Z" fill="#F3AF9D"/>
<path d="M607.3 222.5C671.8 231.1 720.6 234 766 234.6C811.4 235.2 808.4 200.4 771.3 195.1C734.2 189.8 656.8 183.6 609.1 180.9L607.3 222.5Z" fill="#F3AF9D"/>
<path d="M396.7 65.9C397.142 65.9 397.5 65.5418 397.5 65.1C397.5 64.6582 397.142 64.3 396.7 64.3C396.258 64.3 395.9 64.6582 395.9 65.1C395.9 65.5418 396.258 65.9 396.7 65.9Z" fill="black"/>
<path d="M396.7 60.1C397.142 60.1 397.5 59.7418 397.5 59.3C397.5 58.8582 397.142 58.5 396.7 58.5C396.258 58.5 395.9 58.8582 395.9 59.3C395.9 59.7418 396.258 60.1 396.7 60.1Z" fill="black"/>
<path d="M396.7 78.5C397.142 78.5 397.5 78.1418 397.5 77.7C397.5 77.2582 397.142 76.9 396.7 76.9C396.258 76.9 395.9 77.2582 395.9 77.7C395.9 78.1418 396.258 78.5 396.7 78.5Z" fill="black"/>
<path d="M386 83C386.442 83 386.8 82.6418 386.8 82.2C386.8 81.7582 386.442 81.4 386 81.4C385.558 81.4 385.2 81.7582 385.2 82.2C385.2 82.6418 385.558 83 386 83Z" fill="black"/>
<path d="M391.2 83C391.642 83 392 82.6418 392 82.2C392 81.7582 391.642 81.4 391.2 81.4C390.758 81.4 390.4 81.7582 390.4 82.2C390.4 82.6418 390.758 83 391.2 83Z" fill="black"/>
<path d="M396.7 71.4C397.142 71.4 397.5 71.0418 397.5 70.6C397.5 70.1582 397.142 69.8 396.7 69.8C396.258 69.8 395.9 70.1582 395.9 70.6C395.9 71.0418 396.258 71.4 396.7 71.4Z" fill="black"/>
<path d="M396.7 83.8C397.142 83.8 397.5 83.4418 397.5 83C397.5 82.5582 397.142 82.2 396.7 82.2C396.258 82.2 395.9 82.5582 395.9 83C395.9 83.4418 396.258 83.8 396.7 83.8Z" fill="black"/>
<path d="M407.1 83C407.542 83 407.9 82.6418 407.9 82.2C407.9 81.7582 407.542 81.4 407.1 81.4C406.658 81.4 406.3 81.7582 406.3 82.2C406.3 82.6418 406.658 83 407.1 83Z" fill="black"/>
<path d="M402.3 83C402.742 83 403.1 82.6418 403.1 82.2C403.1 81.7582 402.742 81.4 402.3 81.4C401.858 81.4 401.5 81.7582 401.5 82.2C401.5 82.6418 401.858 83 402.3 83Z" fill="black"/>
<path d="M395.4 81.8C394.2 81.8 390.8 83.4 389.6 87C389.4 88.2 390.2 92.8 395.6 91.1C395.5 90.1 390.9 90 391.1 87.4C391.4 85.6 393.1 85.6 395.4 81.8Z" fill="#2C323A" stroke="#2C323A" stroke-width="2" stroke-miterlimit="10"/>
</svg>
